<svg data-v-1084b650="" xmlns="http://www.w3.org/2000/svg" viewBox="0 0 300 300"><!----> <!----> <rect data-v-1084b650="" fill="#ffffff" x="0" y="0" width="300px" height="300px" class="logo-background-square"></rect> <!----> <g data-v-1084b650="" id="44347e02-9876-8b8c-243c-9d5aa14e2293" fill="#000000" transform="matrix(2.2,0,0,2.2,131.271369600296,129.7270031929016)"><path d="M4.65 4.87C5.03 4.87 5.17 4.69 5.17 4.45L5.17 4.33C5.17 4.09 5.03 3.91 4.65 3.91C4.27 3.91 4.13 4.09 4.13 4.33L4.13 4.45C4.13 4.69 4.27 4.87 4.65 4.87ZM1.60 14.35L7.53 14.35L7.53 13.92L4.90 13.92L4.90 7.13L1.60 7.13L1.60 7.56L4.41 7.56L4.41 13.92L1.60 13.92ZM10.57 14.35L10.57 9.18C10.57 7.98 11.59 7.39 12.68 7.39C14.01 7.39 14.76 8.12 14.76 9.74L14.76 14.35L15.25 14.35L15.25 9.66C15.25 7.91 14.36 6.96 12.80 6.96C11.54 6.96 10.88 7.56 10.61 8.19L10.57 8.19L10.57 7.13L10.08 7.13L10.08 14.35ZM18.07 14.35L23.98 14.35L23.98 13.92L21.20 13.92L21.20 7.56L24.30 7.56L24.30 7.13L21.20 7.13L21.20 4.42L24.30 4.42L24.30 3.99L21.41 3.99C20.93 3.99 20.72 4.24 20.72 4.69L20.72 7.13L17.93 7.13L17.93 7.56L20.72 7.56L20.72 13.92L18.07 13.92ZM29.85 4.87C30.23 4.87 30.37 4.69 30.37 4.45L30.37 4.33C30.37 4.09 30.23 3.91 29.85 3.91C29.47 3.91 29.33 4.09 29.33 4.33L29.33 4.45C29.33 4.69 29.47 4.87 29.85 4.87ZM26.80 14.35L32.73 14.35L32.73 13.92L30.10 13.92L30.10 7.13L26.80 7.13L26.80 7.56L29.61 7.56L29.61 13.92L26.80 13.92ZM35.77 14.35L35.77 9.18C35.77 7.98 36.79 7.39 37.88 7.39C39.21 7.39 39.96 8.12 39.96 9.74L39.96 14.35L40.45 14.35L40.45 9.66C40.45 7.91 39.56 6.96 38.00 6.96C36.74 6.96 36.08 7.56 35.81 8.19L35.77 8.19L35.77 7.13L35.28 7.13L35.28 14.35ZM46.65 4.87C47.03 4.87 47.17 4.69 47.17 4.45L47.17 4.33C47.17 4.09 47.03 3.91 46.65 3.91C46.27 3.91 46.13 4.09 46.13 4.33L46.13 4.45C46.13 4.69 46.27 4.87 46.65 4.87ZM43.60 14.35L49.53 14.35L49.53 13.92L46.90 13.92L46.90 7.13L43.60 7.13L43.60 7.56L46.41 7.56L46.41 13.92L43.60 13.92ZM57.72 14.35L57.72 13.92L54.12 13.92L54.12 7.56L57.72 7.56L57.72 7.13L54.12 7.13L54.12 4.58L53.65 4.58L53.65 6.66C53.65 6.99 53.51 7.13 53.17 7.13L50.92 7.13L50.92 7.56L53.63 7.56L53.63 13.65C53.63 14.10 53.84 14.35 54.32 14.35ZM63.10 14.52C64.50 14.52 65.46 13.79 65.88 12.67L65.49 12.46C65.07 13.54 64.25 14.08 63.10 14.08C61.46 14.08 60.54 12.94 60.54 11.14L60.54 10.78L66.02 10.78L66.02 10.58C66.02 8.40 64.96 6.96 63.03 6.96C61.17 6.96 60.00 8.29 60.00 10.74C60.00 13.19 61.17 14.52 63.10 14.52ZM63.03 7.38C64.60 7.38 65.51 8.51 65.51 10.32L65.51 10.39L60.54 10.39L60.54 10.33C60.54 8.53 61.46 7.38 63.03 7.38Z"></path></g> <linearGradient data-v-1084b650="" gradientTransform="rotate(25)" id="5d2433e5-9421-18e9-867a-aa353551f9cd" x1="0%" y1="0%" x2="100%" y2="0%"><stop data-v-1084b650="" offset="0%" style="stop-color: rgb(78, 26, 112); stop-opacity: 1;"></stop> <stop data-v-1084b650="" offset="100%" style="stop-color: rgb(43, 76, 242); stop-opacity: 1;"></stop></linearGradient> <g data-v-1084b650="" id="29e296e0-1298-d6dd-894d-703dd630bae3" fill="url(#5d2433e5-9421-18e9-867a-aa353551f9cd)" stroke="none" transform="matrix(0.28886939687469787,0,0,0.28886939687469787,39.322964187057025,106.66925106841143)"><svg xmlns="http://www.w3.org/2000/svg" viewBox="0 0 128 128"><path d="M90.716 58.23a.771.771 0 0 1 .345-.102l-.651-8.221-15.451 8.898 7.379 4.248 8.378-4.823zM38.218 79.959l-.784 9.898 26.347-15.169-8.355-4.635zM38.148 49.908l-.65 8.221c.119.01.239.039.347.102l8.789 5.061h.001l44.49 26.566-.785-9.898-52.192-30.052zM99.914 63.055l7.379-4.248-15.453-8.899-.65 8.221a.799.799 0 0 1 .348.102l8.376 4.824z"></path><path d="M64.904 53.248l8.394 4.613 17.184-9.895a.834.834 0 0 1 .579-.309.827.827 0 0 1 .712.313l17.581 10.121c.014.008.025.02.037.027.026.018.05.033.074.053a.965.965 0 0 1 .112.112c.02.023.036.049.053.074.009.014.02.023.038.061.014.027.025.055.036.082a.634.634 0 0 1 .044.148.532.532 0 0 1 .014.078c.003.027.002.053.002.08 0 .025.001.051-.002.078a.532.532 0 0 1-.014.078.634.634 0 0 1-.018.078c-.007.023-.017.047-.026.07-.011.027-.022.055-.047.105-.005.01-.014.016-.02.023a.717.717 0 0 1-.096.125c-.012.014-.021.025-.035.037a.817.817 0 0 1-.158.119L91.537 69.777a.823.823 0 0 1-.821 0L37.458 38.143 1.573 58.801 37.43 78.514l16.318-9.395-7.517-4.17-8.388 4.828a.815.815 0 0 1-.821 0c-.815-.451-16.51-9.107-17.285-9.568-.514-.305-1.114-.572-1.021-1.271.111-.842 1.209-1.262 1.861-1.637 2.014-1.16 4.028-2.318 6.042-3.479l10.17-5.855a.834.834 0 0 1 .579-.309.83.83 0 0 1 .713.313l53.053 30.545 35.863-19.709L91.125 38.15 64.904 53.248zM127 58.807L91.91 79.949l-.784 9.908L127 69.203z"></path><path d="M21.266 58.807l7.381 4.248 8.377-4.824a.806.806 0 0 1 .346-.102l-.651-8.221-15.453 8.899zM1 58.807v10.396l36.154 20.654-.925-9.908z"></path></svg></g></svg>